<?xml version="1.0" encoding="UTF-8"?>
<svg id="Layer_2" xmlns="http://www.w3.org/2000/svg" version="1.1" viewBox="0 0 86.3 78.7">
  <!-- Generator: Adobe Illustrator 29.2.1, SVG Export Plug-In . SVG Version: 2.1.0 Build 116)  -->
  <defs>
    <style>
      .st0 {
        fill: #fff;
      }
    </style>
  </defs>
  <g id="Layer_1-2">
    <g>
      <path d="M47.4,15.9c1.6,2.3,3.4,4.2,5,6.1-2,4.5-8.3,11.3-11.7,5.2-2.1-3.8,3.4-8.6,6.7-11.2Z"/>
      <path d="M53.1,21c-2-2.1-3.6-4.6-4.8-6.2,2.1-5.6,6.8-10,12.1-12.4C63.7.8,67.3.1,70.2,0c2.6,0,4.7,2.6,4.1,5-.6,1.9-3.4,7.6-6.8,10.1-4.2,3-10.4,1.9-14.4,6Z"/>
      <path d="M31.3,66.5c-2.8,0-5.4-.2-7.9-.4-2.4,4.3-4.1,13.4,2.9,12.4,4.3-.6,4.8-7.8,5-12.1Z"/>
      <path d="M23.7,65c2.9.3,5.9,0,7.9.1,3.2-5.1,3.9-11.5,2.7-17.1-.7-3.5-2.4-6.9-4-9.3-1.5-2.1-4.8-2.2-6.4-.3-1.2,1.7-4,7.3-4,11.5,0,5.2,4.7,9.5,3.8,15.1Z"/>
      <path d="M44.7,6.3c1.2.3,1.7.5,4.5,1.5-4.2,1.7-6.9,4.2-10.3,4.9,1-1.7,2.1-3.4,2.5-4.3-.5-.5-1.7-1.9-3.2-3.1,3.3,0,4.4.4,6.5,1Z"/>
      <path d="M34.4,9.6c1.8-1.6,2.6-1.6,5-.8-1.6,1.4-3.5,1.7-5,.8Z"/>
      <path d="M12.2,38.7c1,1.7,3.5,7.6,3.1,11.8-.5,5.1-5.5,9.1-5,14.7-3,.1-5.9-.4-7.9-.5-2.8-5.3-3-11.7-1.4-17.3,1-3.5,2.9-6.7,4.7-9,1.7-2,5-1.8,6.4.2Z"/>
      <path d="M10.5,66.4c2.1,4.4,3,13.7-3.8,12.2-4.2-.9-4.2-8.2-4.1-12.4,2.8.3,5.4.2,7.9.2Z"/>
      <path d="M32.2,10.4c-1.4,1.7-3.1,2.3-4.8,1.7,1.5-1.9,2.2-2,4.8-1.7Z"/>
      <path d="M24.9,13.3c-1,1.9-2.7,2.8-4.4,2.5,1.1-2.2,1.9-2.4,4.4-2.5Z"/>
      <path d="M18.5,17.4c-.4,2.1-1.7,3.4-3.5,3.7.5-2.4,1.1-2.8,3.5-3.7Z"/>
      <path d="M13.8,23.1c.2,2.2-.6,3.8-2.1,4.6-.3-2.4.1-3,2.1-4.6Z"/>
      <path d="M11,29.9c.6,2.1,0,3.8-1.4,4.9-.7-2.3-.3-3,1.4-4.9Z"/>
      <path d="M65.9,37.7c-1.9-2-3.4-4.2-4.9-6.2-4.8,1-12.8,5.8-7.5,10.4,3.3,2.8,9.1-1.6,12.4-4.2Z"/>
      <path d="M62.1,31c1.7,2.4,3.8,4.5,5.1,6,5.9-.9,11.2-4.6,14.7-9.3,2.2-2.9,3.6-6.3,4.3-9.1.6-2.5-1.6-5.1-4.1-5-2,.2-8.2,1.8-11.3,4.6-3.8,3.5-4,9.8-8.8,12.8Z"/>
      <path d="M66.8,50.6c-1.8,1.2-2.5,2.9-2.2,4.6,2.1-1.3,2.2-2,2.2-4.6Z"/>
      <path d="M70.6,46.2c0-1.2,0-1.8-.2-4.8-2.8,3.6-5.9,5.5-7.6,8.6,1.9-.5,3.9-1.1,4.8-1.2.4.6,1.3,2.2,2.1,3.9.9-3.1.8-4.3.8-6.5Z"/>
      <path d="M63.2,57.1c-2,.8-3,2.4-3,4.1,2.3-.9,2.6-1.6,3-4.1Z"/>
      <path d="M58.4,63.4c-2.1.5-3.4,1.8-3.7,3.6,2.4-.5,2.8-1.1,3.7-3.6Z"/>
      <path d="M38.7,72.1c-1.8-1.1-3.7-1.1-5.1,0,2.1,1.3,2.8,1.1,5.1,0Z"/>
      <path d="M52.4,68.3c-2.2,0-3.7.9-4.4,2.5,2.4.1,3-.4,4.4-2.5Z"/>
      <path d="M45.7,71.4c-2-.9-3.8-.7-5.1.5,2.2,1.1,2.9.8,5.1-.5Z"/>
    </g>
    <g>
      <path class="st0" d="M7.3,53.8v-7.1l-2,1.2v-1.7c1.3-.6,2.3-1.4,3-2.3h.7v9.8h-1.7Z"/>
      <path class="st0" d="M24,53.9v-.5l3.1-4.6c.6-.9.9-1.7.9-2.3s-.4-1.1-1.3-1.1-1.2.4-1.6,1.1l-1.2-.9c.2-.5.6-.9,1.1-1.2.5-.3,1-.5,1.6-.5,1,0,1.8.2,2.4.7.6.5.8,1.1.8,1.9s-.4,1.7-1.1,2.8l-2,3.1h3.7v1.5h-6.4Z"/>
      <path class="st0" d="M57.9,9.5l1.6-.2c0,.8,0,1.4.5,1.8.7.8,1.5.9,2.3.2.4-.3.5-.7.5-1.1,0-.4-.2-.9-.5-1.3l-.2-.2,1.1-.9.2.2c.7.8,1.3.8,1.9.3.7-.6.7-1.2,0-1.9-.3-.4-.8-.6-1.4-.6l.4-1.4c.3,0,.7,0,1.2.3.4.2.8.5,1.1.8.6.7,1,1.5,1,2.2,0,.7-.3,1.3-.9,1.9-.7.6-1.5.8-2.5.5.3,1.1,0,2-.8,2.8-.7.6-1.4.9-2.2.7-.8-.1-1.5-.6-2.3-1.4-.7-.7-1-1.6-1-2.5Z"/>
      <path class="st0" d="M75.8,26.7l-1.9,1.7-1.1-1.3,1.9-1.7-2.9-3.4.7-.7h8.3c0-.1.5.5.5.5l-4.4,3.9.7.7-1,.9-.7-.7ZM78,22.6h-3.9c0,0,1.7,1.9,1.7,1.9l2.2-1.9Z"/>
    </g>
  </g>
</svg>
