<?xml version="1.0" encoding="UTF-8"?>
<svg id="Layer_2" data-name="Layer 2" xmlns="http://www.w3.org/2000/svg" viewBox="0 0 54.502678956346244 59.057688225237143">
  <g id="Layer_1-2" data-name="Layer 1">
    <g>
      <path d="M46.690366338302738,2.057688225237143c7.582000000000335,2.999499999999898,8.911091535215746,12.989199999999983,7.078091581521221,20.995600000000195-1.145499971062236,5.018499999999221-6.471699836511107,11.890099999998711-10.754899728308374,17.004399999999805-7.743099804392841,9.248999999999796-8.991191853212513,10.993099999999686-16.035599594906671,19C19.89936633830348,46.701188225237274,4.917859153893914,33.48538822523733.347559269349404,16.803288225237338-2.04644067017307,8.032288225236698,8.399859065931196-2.112711774762829,17.17325884429647.384788225236662c5.497999861108838,1.565500000000611,7.009799822917557,3.537100000000464,10.010699747108447,7.169499999999971C31.559458480870489,1.926288225236931,36.908158345750962-1.813911774763255,46.690366338302738,2.057688225237143Z"/>
      <path d="M42.273366338303276,4.55668822523694c8.419891659206769,1.16989999999987,10.5,14,7.25,20.75-1.870108263996372,3.89010000000053-6.5,9-10,13.5-5.790000000000873,7.450199999999313-7.290000000000873,7.839799999999741-12.330107747133297,14.75C21.013558747282332,43.22658822523772,7.96325907696064,31.646488225236681,3.85345918078292,17.72658822523681,1.533159239398628,9.866788225236633,9.233366338304222,2.716888225237199,16.903258851117243,4.80668822523694c4.789999878994422,1.310099999999693,7.760199803960859,4.770000000000437,10.289999740052735,7.75,3.820299903491104-4.710000000000036,5.200199868631898-9.370100000000093,15.080107747133297-8Z" style="fill: #fff;"/>
      <path d="M29.237258539534196,17.096688225236903c5.639599857531721.799799999999777,10.959899723129638,4.210000000000036,10.409107798768673,10.629899999999907-.169908057432622,1.950200000000223-1.25,3.290099999999256-2.53899999999885,4.250000000000909-1.120107969289165.83009999999922-3.25,1.200199999999313-3.46100000000115,1.66019999999844-.609307894759695,1.360300000000279-1.86910786293447,3.08980000000156-2.869107837672345,4.299800000000687-1.190399969927967,1.450199999999313-1.880892162327655,2.160100000000966-3.020499923695752,3.839799999999741-1.269999967917101-1.419899999998961-.110392238631903-4.639600000000428,0-6.839799999999741-1.189899969940598.08009999999922-3.109899921437318-.16990000000078-4.819799878241611-.66990000000078-2.200199944418273-.709999999999127-5.160199869642383-2.979499999999462-5.959999849437736-5.790099999999256-.70019998231146-2.5-.590299985087768-5.600099999999657.799799979795353-7.589799999999741,1.959999950486235-2.800299999999879,7.08009982114163-4.399900000000343,11.460499710483418-3.790100000000166ZM32.686458452400075,32.936588225236846c.820299979277479-1.139699999999721,5.999999848427251-1.709999999999127,5.510699860788009-6.27980000000025-1.100599972196505-10.16019999999935-20.900399472011486-11.479999999999563-20.160099490713037-.35989999999947.329599991673604,4.929700000000594,5.54979985980026,7.939500000000407,11.359307515827822,7.049800000000687-.219707797237788,1.229499999999462-.5,2.919999999998254-.559507788653718,4.83009999999922,2.059507788653718-2.120100000000093,2.980399924708763-4.040000000000873,3.849599902750924-5.240200000000186Z"/>
      <path d="M23.672836959106462,23.87260619398694c-.548828125,0-1.125-.021484375-1.7373046875-.072265625-.41259765625-.0341796875-.7197265625-.39697265625-.685546875-.8095703125.03466796875-.41259765625.40576171875-.71337890625.8095703125-.685546875,2.13037109375.17724609375,3.7578125-.02392578125,5.482421875-.236328125,1.669921875-.2060546875,3.3974609375-.41943359375,5.578125-.26025390625.4140625.02978515625.724609375.38916015625.6943359375.80224609375-.029296875.41357421875-.41015625.72802734375-.8017578125.69384765625-2.037109375-.1484375-3.6162109375.04638671875-5.287109375.2529296875-1.26171875.1552734375-2.55517578125.31494140625-4.052734375.31494140625Z"/>
      <path d="M23.465805709106462,26.87260619398694c-.48583984375,0-.99609375-.021484375-1.5390625-.0732421875-.412109375-.0390625-.71484375-.40478515625-.67578125-.8173828125s.4140625-.72119140625.8173828125-.67578125c1.8447265625.1748046875,3.26123046875-.02392578125,4.7607421875-.23583984375,1.4716796875-.20654296875,2.9951171875-.421875,4.923828125-.26123046875.4130859375.0341796875.7197265625.396484375.685546875.8095703125-.0341796875.41259765625-.3955078125.71923828125-.80859375.685546875-1.7666015625-.14697265625-3.1376953125.04736328125-4.591796875.251953125-1.111328125.15625-2.25048828125.31640625-3.572265625.31640625Z"/>
      <path d="M23.672836959106462,29.87211791273694c-.548828125,0-1.125-.021484375-1.7373046875-.072265625-.41259765625-.0341796875-.7197265625-.396484375-.685546875-.80908203125.03466796875-.41259765625.40576171875-.70703125.8095703125-.685546875,2.13037109375.177734375,3.7578125-.02392578125,5.482421875-.236328125,1.669921875-.20556640625,3.3974609375-.41845703125,5.578125-.26025390625.4140625.02978515625.724609375.38916015625.6943359375.80224609375-.029296875.4130859375-.41015625.73291015625-.8017578125.69384765625-2.037109375-.14794921875-3.6162109375.04638671875-5.287109375.2529296875-1.26171875.1552734375-2.55517578125.314453125-4.052734375.314453125Z"/>
    </g>
  </g>
</svg>
